<?xml version="1.0" encoding="UTF-8" ?>
<!DOCTYPE svg PUBLIC "-//W3C//DTD SVG 1.1//EN" "http://www.w3.org/Graphics/SVG/1.1/DTD/svg11.dtd">
<svg width="574pt" height="591pt" viewBox="0 0 574 591" version="1.1" xmlns="http://www.w3.org/2000/svg">
<g id="#90a6acff">
</g>
<g id="#8fa4a8ff">
</g>
<g id="#fdfcefff">
<path fill="#fdfcef" opacity="1.00" d=" M 236.05 34.67 C 258.33 29.92 281.31 28.58 304.03 30.13 C 316.45 30.49 328.85 32.00 340.91 35.05 C 349.98 37.38 359.15 39.35 368.04 42.34 C 380.06 46.47 391.96 51.06 403.44 56.53 C 410.43 60.68 417.49 64.94 423.61 70.32 C 424.26 71.00 424.90 71.68 425.54 72.37 C 425.13 72.64 424.32 73.18 423.91 73.45 C 419.72 76.06 416.30 79.63 412.49 82.71 C 411.70 83.56 410.55 82.73 409.65 82.63 C 396.49 72.70 380.91 66.90 365.88 60.50 C 353.61 55.48 340.51 53.03 327.50 50.79 C 317.39 49.00 307.21 47.36 296.95 46.75 C 284.62 46.44 272.20 46.67 260.02 48.83 C 252.72 50.26 245.39 51.52 238.09 52.96 C 226.50 55.01 215.21 58.50 204.11 62.35 C 198.18 64.35 192.89 67.77 187.15 70.20 C 179.64 73.32 172.95 78.03 166.06 82.29 C 165.17 82.44 164.29 82.62 163.41 82.82 C 159.38 79.46 155.72 75.60 151.05 73.08 C 150.71 72.85 150.01 72.39 149.66 72.16 C 150.28 71.50 150.91 70.85 151.55 70.21 C 158.29 64.40 166.44 60.61 174.04 56.10 C 183.29 50.60 193.56 47.28 203.65 43.71 C 214.24 40.01 225.18 37.44 236.05 34.67 Z" />
</g>
<g id="#395260ff">
</g>
<g id="#506e7aff">
</g>
<g id="#809ea7ff">
</g>
<g id="#60808eff">
</g>
<g id="#5a7f90ff">
</g>
<g id="#fcfbecff">
<path fill="#fcfbec" opacity="1.00" d=" M 280.64 61.73 C 285.35 61.55 290.29 60.56 294.87 62.00 C 296.12 64.08 296.02 66.63 296.14 68.98 C 296.06 80.21 296.67 91.44 296.20 102.67 C 300.68 103.04 305.19 103.13 309.69 103.05 C 309.74 103.55 309.85 104.56 309.90 105.06 C 310.44 108.84 310.33 112.66 310.24 116.46 L 309.91 117.95 C 306.52 118.21 303.12 118.22 299.73 118.11 C 294.15 117.49 288.53 117.69 282.94 117.29 C 281.99 117.08 281.04 116.88 280.10 116.68 C 280.32 112.04 280.08 107.39 279.91 102.75 C 279.94 99.35 280.23 95.96 280.15 92.56 C 280.55 82.29 280.31 72.01 280.64 61.73 Z" />
</g>
<g id="#5e7b87ff">
</g>
<g id="#caece4ff">
<path fill="#caece4" opacity="1.00" d=" M 250.17 64.44 C 254.51 63.80 258.89 63.30 263.28 63.24 C 264.09 67.24 264.45 71.31 264.70 75.39 C 264.64 78.92 264.67 82.45 264.87 85.97 L 264.41 86.42 C 259.35 86.46 254.06 86.94 249.36 84.68 C 249.33 81.23 249.31 77.78 249.38 74.34 C 249.39 71.02 249.67 67.72 250.17 64.44 Z" />
</g>
<g id="#fcfbefff">
<path fill="#fcfbef" opacity="1.00" d=" M 325.36 65.74 C 330.77 66.46 336.10 67.64 341.47 68.61 C 341.87 77.07 341.67 85.54 341.65 94.00 C 341.48 107.18 342.13 120.36 341.59 133.53 C 343.90 133.46 346.22 133.45 348.54 133.39 C 351.16 133.32 353.79 133.41 356.42 133.53 C 356.77 138.12 356.93 142.73 356.77 147.34 C 356.63 147.72 356.34 148.50 356.20 148.88 C 346.81 148.76 337.41 149.04 328.03 148.43 C 326.10 148.61 325.64 146.39 325.53 144.91 C 324.43 129.97 324.95 114.98 324.84 100.01 C 325.06 89.08 324.60 78.14 325.20 67.23 L 325.36 65.74 Z" />
<path fill="#fcfbef" opacity="1.00" d=" M 462.40 226.44 C 467.89 226.29 473.38 226.41 478.88 226.33 C 479.03 226.82 479.34 227.79 479.49 228.28 C 479.53 232.40 479.59 236.51 479.50 240.63 C 478.84 241.35 478.09 242.24 477.02 242.18 C 473.08 242.53 469.13 242.16 465.19 242.23 C 464.47 242.14 463.03 241.95 462.32 241.86 C 462.35 236.72 462.53 231.58 462.40 226.44 Z" />
<path fill="#fcfbef" opacity="1.00" d=" M 326.06 457.37 C 341.37 457.70 356.70 457.73 372.01 457.14 L 372.09 457.59 C 372.67 462.57 372.25 467.59 372.72 472.58 C 377.64 472.57 382.55 472.31 387.46 472.18 C 387.46 477.46 387.45 482.73 387.41 488.01 C 389.90 487.98 392.56 487.33 394.96 488.29 C 396.87 489.42 398.31 491.18 399.72 492.87 L 399.81 493.65 C 399.92 495.20 400.42 497.06 399.27 498.37 C 396.46 502.07 391.93 504.00 387.40 504.39 C 382.34 504.54 377.05 504.94 372.27 502.92 C 372.37 498.24 372.67 493.56 372.50 488.88 C 367.53 488.42 362.55 487.98 357.56 488.05 C 357.51 486.42 357.35 484.80 357.27 483.19 C 357.14 479.75 357.28 476.30 357.31 472.87 C 351.92 473.02 346.48 472.39 341.13 473.22 C 340.04 477.74 340.82 482.46 340.75 487.06 C 340.75 490.98 340.74 494.90 341.09 498.81 C 341.38 507.57 341.82 516.43 340.07 525.08 C 338.74 526.89 336.18 527.09 334.16 527.69 C 331.18 528.10 327.97 529.26 325.06 528.07 C 323.26 522.71 324.63 516.86 324.33 511.30 C 324.74 506.79 324.81 502.25 324.91 497.72 C 324.94 495.79 324.95 493.85 324.93 491.92 C 324.92 491.23 324.89 489.85 324.87 489.16 C 314.81 489.08 304.75 489.52 294.73 488.49 C 294.18 483.32 294.23 478.12 294.18 472.94 C 304.51 472.56 314.87 472.73 325.20 472.90 C 325.92 467.75 325.24 462.51 326.06 457.37 Z" />
</g>
<g id="#3c5965ff">
</g>
<g id="#638c9dff">
</g>
<g id="#7c9ca6ff">
</g>
<g id="#fcfcf5ff">
<path fill="#fcfcf5" opacity="1.00" d=" M 215.93 72.12 C 222.20 71.15 228.53 70.60 234.84 69.97 C 235.24 75.36 233.69 81.24 235.70 86.31 C 235.29 86.40 234.45 86.57 234.03 86.65 C 231.24 86.87 228.43 86.83 225.64 86.79 C 219.22 86.29 212.77 86.94 206.37 86.32 C 202.46 85.72 204.13 80.48 203.48 77.70 C 206.70 74.24 211.48 73.07 215.93 72.12 Z" />
</g>
<g id="#6c8c98ff">
</g>
<g id="#fcfaeeff">
<path fill="#fcfaee" opacity="1.00" d=" M 357.69 71.48 C 364.24 73.49 371.20 75.82 375.83 81.16 C 378.19 83.99 382.15 83.98 385.40 85.10 C 386.53 85.97 387.64 86.90 388.76 87.80 C 388.58 91.63 388.46 95.45 388.38 99.27 C 388.35 101.04 388.35 102.80 388.39 104.57 C 387.97 130.34 388.33 156.11 388.57 181.87 C 388.63 186.46 388.63 191.05 388.63 195.65 C 396.41 196.14 404.21 196.31 412.00 195.96 C 415.16 195.98 418.94 195.38 421.32 197.97 C 426.69 203.89 433.71 208.89 441.89 209.60 C 443.46 210.06 446.32 209.86 446.26 212.13 C 446.90 221.60 446.82 231.14 446.73 240.64 C 446.08 240.74 444.78 240.95 444.12 241.05 C 440.02 241.70 435.86 241.00 431.76 241.52 C 431.13 237.27 431.26 232.96 430.69 228.71 C 430.42 222.92 430.51 217.13 430.65 211.34 L 430.63 210.23 C 426.79 209.70 422.91 209.81 419.05 209.95 C 414.46 210.17 409.73 209.50 405.32 211.14 C 394.84 211.74 384.22 212.36 373.77 211.10 C 371.84 206.66 372.48 201.75 372.37 197.05 C 372.15 170.41 372.19 143.77 372.02 117.13 C 371.96 113.36 371.81 109.60 371.97 105.83 L 372.08 104.92 C 372.15 104.31 372.29 103.11 372.35 102.50 C 367.56 101.83 362.73 101.62 357.90 101.81 C 357.05 91.75 356.96 81.56 357.69 71.48 Z" />
<path fill="#fcfaee" opacity="1.00" d=" M 188.03 443.45 C 193.32 443.22 198.63 443.29 203.91 442.79 C 203.69 447.67 203.63 452.55 203.61 457.43 C 208.58 457.26 213.56 457.15 218.53 457.08 C 219.73 462.02 220.44 467.08 220.18 472.17 C 214.67 472.60 209.13 472.02 203.64 472.69 C 203.34 478.09 203.05 483.51 203.46 488.92 C 208.26 488.77 213.07 488.99 217.87 489.13 C 218.04 489.45 218.38 490.07 218.55 490.39 C 218.44 497.16 218.49 503.93 218.55 510.71 C 218.56 512.26 218.63 513.82 218.78 515.38 C 218.57 516.49 218.24 517.55 217.78 518.59 C 213.33 519.10 208.26 519.17 204.37 516.68 C 201.71 513.12 202.84 508.19 202.61 504.03 C 195.58 503.50 188.47 504.41 181.49 503.33 C 179.32 501.99 178.05 499.57 176.28 497.77 C 180.46 495.58 180.35 489.85 184.41 487.47 C 184.90 487.13 185.87 486.47 186.36 486.13 C 186.57 484.94 186.76 483.75 186.94 482.57 C 188.79 469.61 188.30 456.50 188.03 443.45 Z" />
</g>
<g id="#5a8091ff">
</g>
<g id="#5f8795ff">
</g>
<g id="#4e7483ff">
</g>
<g id="#435b60ff">
</g>
<g id="#fdfbeeff">
<path fill="#fdfbee" opacity="1.00" d=" M 440.01 83.08 C 443.81 81.96 447.68 81.12 451.56 80.33 C 456.71 80.00 461.89 79.75 467.05 80.18 C 474.22 80.80 480.97 83.56 487.41 86.63 C 493.79 89.70 498.71 94.99 503.36 100.19 C 508.52 106.19 511.56 113.63 514.35 120.94 C 516.90 128.01 516.98 135.63 516.57 143.04 C 516.13 151.50 512.97 159.55 508.82 166.85 C 502.04 179.95 488.92 188.45 475.29 193.11 C 468.60 194.32 461.77 194.99 454.99 194.19 C 448.98 193.81 443.47 191.20 437.65 189.96 C 425.91 185.17 415.24 176.76 409.77 165.10 C 403.95 153.10 401.91 139.42 403.55 126.20 C 405.01 117.57 408.12 109.02 413.75 102.21 C 420.84 93.94 429.60 86.67 440.01 83.08 M 437.14 105.17 C 429.21 111.11 423.02 119.89 421.47 129.78 C 420.13 134.08 421.08 138.58 421.59 142.93 C 422.37 147.71 423.07 152.84 426.23 156.73 L 426.24 157.16 C 431.21 165.71 439.20 172.81 448.92 175.33 C 458.78 177.88 469.83 177.43 478.80 172.27 C 484.41 168.58 489.58 163.96 493.34 158.36 C 495.02 154.51 496.79 150.58 497.66 146.47 C 499.72 136.93 498.65 126.25 493.53 117.79 C 486.27 106.65 473.73 97.86 460.00 98.47 C 452.04 98.83 443.73 100.43 437.14 105.17 Z" />
<path fill="#fdfbee" opacity="1.00" d=" M 254.20 228.16 C 270.05 219.44 289.25 218.40 306.58 222.72 C 321.23 226.50 333.67 236.32 343.17 247.83 C 348.43 254.33 351.64 262.15 355.29 269.60 C 357.71 279.15 359.03 289.09 358.05 298.93 C 357.58 303.39 356.77 307.80 356.17 312.25 C 351.42 328.56 340.79 343.06 326.86 352.75 C 311.89 362.20 293.35 365.85 275.93 362.52 C 265.06 361.20 254.60 356.85 246.05 350.01 C 237.04 342.24 229.17 332.96 223.77 322.32 C 219.84 313.24 217.49 303.45 217.14 293.56 C 217.35 286.42 218.09 279.30 219.58 272.31 C 222.18 262.24 227.28 252.89 234.01 244.99 C 239.97 238.56 246.37 232.29 254.20 228.16 M 242.48 265.15 C 240.37 269.38 237.91 273.75 237.50 278.53 L 236.98 277.85 C 235.36 284.32 234.85 291.12 235.86 297.73 C 236.10 303.65 237.72 310.05 241.40 314.84 C 241.37 316.28 243.23 317.47 244.43 316.51 C 249.55 313.03 253.64 308.31 257.89 303.86 C 263.70 297.62 269.94 291.72 276.98 286.88 C 278.20 285.83 280.68 284.67 279.64 282.70 C 279.35 276.04 279.52 269.31 278.96 262.69 C 279.58 255.31 279.16 247.88 279.35 240.49 C 279.26 240.03 279.08 239.12 278.99 238.66 C 263.57 241.29 250.77 252.27 242.48 265.15 M 296.39 239.17 C 296.48 244.18 295.83 249.28 296.96 254.22 C 297.51 263.49 297.18 272.78 297.45 282.06 C 297.69 283.23 297.36 285.18 298.92 285.53 C 301.14 288.23 303.97 290.34 306.46 292.77 C 312.88 299.25 319.35 305.69 326.10 311.82 C 327.93 313.31 329.71 315.10 332.03 315.78 C 333.76 315.57 334.61 313.78 335.51 312.51 C 340.40 303.98 341.55 293.73 340.04 284.12 C 339.46 281.20 338.84 278.30 338.08 275.43 L 337.82 275.44 C 334.51 264.84 326.96 255.95 318.46 249.06 C 316.34 245.56 312.13 244.26 308.67 242.48 C 304.73 240.94 300.75 238.87 296.39 239.17 M 267.81 319.76 C 263.78 324.57 258.67 328.29 254.51 332.97 C 255.81 334.19 256.88 335.63 258.22 336.83 L 258.18 337.05 C 260.51 339.00 263.01 340.80 265.94 341.74 L 265.98 342.06 C 270.48 343.71 275.14 345.06 279.99 344.85 C 280.01 343.68 279.92 342.52 279.72 341.39 C 279.42 332.44 279.41 323.48 279.50 314.53 C 279.72 312.59 279.74 310.63 279.75 308.69 C 274.95 311.37 271.71 316.01 267.81 319.76 M 296.31 308.13 C 296.67 314.92 296.65 321.73 297.04 328.52 C 296.74 333.81 297.27 339.15 297.35 344.47 C 298.51 344.38 299.68 344.34 300.85 344.34 C 308.19 342.38 315.04 338.77 320.75 333.75 C 321.68 333.18 323.50 330.96 321.32 330.79 C 320.19 329.67 319.11 328.50 317.90 327.47 L 317.63 327.43 C 312.98 322.74 308.23 318.14 303.32 313.74 C 301.04 311.80 299.44 308.78 296.31 308.13 Z" />
</g>
<g id="#fdfbefff">
<path fill="#fdfbef" opacity="1.00" d=" M 74.77 99.04 C 83.61 89.19 95.88 82.42 109.07 80.82 C 119.70 79.76 130.67 80.76 140.79 84.26 C 142.99 85.09 145.16 86.02 147.26 87.10 C 152.13 90.14 156.18 94.28 160.11 98.42 C 161.13 99.51 162.15 100.60 163.17 101.70 C 180.95 125.24 178.14 162.85 155.00 181.92 C 149.73 186.88 142.98 189.73 136.18 191.89 C 133.44 192.64 130.70 193.42 127.93 194.04 C 116.77 195.63 104.85 194.57 94.75 189.27 C 91.23 187.53 87.83 185.53 84.64 183.25 C 78.33 178.29 72.57 172.33 69.08 165.02 C 65.97 158.71 62.94 152.16 62.11 145.10 C 61.44 139.93 61.27 134.70 61.69 129.50 C 62.86 118.34 67.47 107.57 74.77 99.04 M 107.90 100.30 C 97.76 103.28 88.49 109.86 83.21 119.13 C 80.00 125.73 78.75 133.34 79.93 140.60 C 79.54 142.67 80.49 144.71 80.89 146.71 C 83.60 160.71 95.13 172.46 109.01 175.59 C 119.08 177.96 130.16 176.64 139.01 171.13 C 146.78 166.42 152.10 158.20 154.51 149.61 C 157.93 141.25 157.77 131.73 154.82 123.26 C 148.26 105.10 126.29 94.17 107.90 100.30 Z" />
</g>
<g id="#45636fff">
</g>
<g id="#4e7085ff">
</g>
<g id="#607f8eff">
</g>
<g id="#cae6e0ff">
<path fill="#cae6e0" opacity="1.00" d=" M 185.47 86.66 C 190.61 84.42 196.47 85.78 201.92 85.67 C 202.08 86.28 202.41 87.52 202.57 88.13 C 202.93 91.48 202.69 94.86 202.37 98.20 C 197.15 100.38 191.53 101.30 185.88 101.08 C 182.85 99.25 180.76 96.36 178.99 93.38 C 181.63 91.63 183.37 88.96 185.47 86.66 Z" />
</g>
<g id="#fcfbeeff">
<path fill="#fcfbee" opacity="1.00" d=" M 235.70 86.31 L 237.03 85.99 C 241.44 85.56 245.88 85.70 250.31 85.50 C 250.30 90.83 250.26 96.15 250.44 101.47 C 250.50 102.76 250.56 104.06 250.59 105.36 C 250.66 109.64 250.63 113.93 250.70 118.22 C 250.67 118.92 250.61 120.32 250.58 121.02 C 249.83 125.18 250.87 130.27 247.66 133.56 C 242.99 133.62 238.33 133.30 233.72 132.58 C 233.44 137.98 233.21 143.39 232.69 148.78 L 232.07 148.80 C 222.82 148.52 213.54 148.99 204.30 148.28 C 203.04 164.00 204.01 179.81 203.16 195.55 C 197.77 196.24 192.32 196.15 186.90 195.87 C 186.90 195.53 186.90 194.85 186.90 194.51 C 186.92 184.33 186.40 174.14 187.35 163.98 C 188.83 144.06 187.62 124.07 188.42 104.13 C 188.65 103.65 189.10 102.68 189.33 102.20 C 190.79 107.24 189.84 112.49 190.18 117.64 C 194.36 117.81 198.65 117.24 202.74 118.29 C 203.42 120.58 203.69 122.97 203.86 125.34 C 203.72 128.15 203.71 130.96 203.84 133.77 C 213.74 132.93 223.69 134.40 233.57 133.18 C 233.45 131.66 233.35 130.14 233.26 128.62 C 233.57 114.63 233.30 100.62 234.03 86.65 C 234.45 86.57 235.29 86.40 235.70 86.31 Z" />
<path fill="#fcfbee" opacity="1.00" d=" M 32.86 221.58 C 38.05 204.25 45.00 186.99 56.42 172.79 C 56.70 173.12 57.27 173.79 57.55 174.12 C 57.76 174.62 58.19 175.62 58.41 176.12 C 60.18 181.73 64.21 186.11 68.64 189.80 C 67.00 192.41 65.42 195.07 64.18 197.90 C 56.90 209.33 52.20 222.18 48.64 235.20 C 44.19 250.38 42.89 266.23 41.82 281.95 C 41.29 294.30 41.90 306.67 42.89 318.98 C 44.66 332.42 46.27 346.01 50.87 358.84 C 54.83 374.05 61.38 388.48 69.70 401.79 C 65.11 405.31 62.83 410.81 58.93 414.98 C 53.54 410.53 50.02 404.40 46.45 398.51 C 40.07 387.13 35.59 374.75 32.41 362.12 C 29.29 351.49 26.80 340.60 25.95 329.54 C 24.03 310.17 23.67 290.69 24.76 271.26 C 26.16 254.53 28.00 237.72 32.86 221.58 Z" />
<path fill="#fcfbee" opacity="1.00" d=" M 516.14 184.15 C 518.36 181.53 519.69 178.30 521.16 175.24 C 521.95 175.91 522.79 176.52 523.69 177.06 C 529.09 187.02 533.97 197.27 537.93 207.89 C 539.60 212.46 540.79 217.21 542.73 221.69 C 546.64 234.46 549.63 247.59 550.50 260.95 C 553.51 292.44 552.95 324.57 545.94 355.53 C 542.70 369.48 538.48 383.27 532.22 396.19 C 529.74 402.10 526.02 407.35 522.00 412.30 C 521.31 413.22 520.67 414.17 520.09 415.16 C 519.33 414.24 518.58 413.34 517.89 412.39 C 515.24 408.03 511.82 404.27 508.06 400.86 C 508.12 400.41 508.24 399.51 508.30 399.06 C 508.81 398.42 509.30 397.77 509.77 397.11 C 510.46 396.12 511.03 395.05 511.47 393.92 C 513.77 389.37 516.54 385.04 518.25 380.21 C 523.46 367.39 527.19 354.02 530.19 340.54 C 533.40 326.60 534.75 312.30 534.87 298.02 C 535.41 288.51 535.04 278.96 533.69 269.53 C 531.13 250.04 527.58 230.44 519.61 212.35 C 516.18 205.02 513.34 197.31 508.59 190.69 C 510.26 187.65 513.95 186.72 516.14 184.15 Z" />
</g>
<g id="#466575ff">
</g>
<g id="#7b9299ff">
</g>
<g id="#5b7b88ff">
</g>
<g id="#879da3ff">
</g>
<g id="#8aa1a7ff">
</g>
<g id="#adc8c1ff">
<path fill="#adc8c1" opacity="1.00" d=" M 185.88 101.08 C 191.53 101.30 197.15 100.38 202.37 98.20 C 201.76 100.78 199.02 101.33 196.82 101.84 C 194.34 101.99 191.84 102.01 189.36 102.13 L 189.33 102.20 C 189.10 102.68 188.65 103.65 188.42 104.13 C 188.14 102.95 187.48 102.07 186.42 101.48 L 185.88 101.08 Z" />
</g>
<g id="#3e535cff">
</g>
<g id="#374e5aff">
</g>
<g id="#57828fff">
</g>
<g id="#44636fff">
</g>
<g id="#31434eff">
</g>
<g id="#bbdad4ff">
<path fill="#bbdad4" opacity="1.00" d=" M 250.44 101.47 L 250.78 101.53 C 260.42 102.89 270.21 102.22 279.91 102.75 C 280.08 107.39 280.32 112.04 280.10 116.68 C 276.26 117.30 272.40 117.86 268.50 117.93 C 266.57 113.94 263.62 110.52 262.14 106.31 C 260.53 106.13 258.92 105.91 257.32 105.68 C 256.45 104.75 255.66 103.75 254.96 102.69 C 253.53 103.62 252.03 104.45 250.59 105.36 C 250.56 104.06 250.50 102.76 250.44 101.47 Z" />
</g>
<g id="#e3e5daff">
<path fill="#e3e5da" opacity="1.00" d=" M 189.36 102.13 C 191.84 102.01 194.34 101.99 196.82 101.84 C 199.07 101.42 201.26 101.93 202.84 103.63 C 203.10 103.85 203.63 104.29 203.90 104.51 C 202.86 109.14 203.93 113.84 204.13 118.50 C 204.15 120.78 204.01 123.07 203.86 125.34 C 203.69 122.97 203.42 120.58 202.74 118.29 C 198.65 117.24 194.36 117.81 190.18 117.64 C 189.84 112.49 190.79 107.24 189.33 102.20 L 189.36 102.13 Z" />
</g>
<g id="#41575eff">
</g>
<g id="#c2e2ddff">
<path fill="#c2e2dd" opacity="1.00" d=" M 250.59 105.36 C 252.03 104.45 253.53 103.62 254.96 102.69 C 255.66 103.75 256.45 104.75 257.32 105.68 C 258.92 105.91 260.53 106.13 262.14 106.31 C 263.62 110.52 266.57 113.94 268.50 117.93 C 262.58 118.53 256.63 118.55 250.70 118.22 C 250.63 113.93 250.66 109.64 250.59 105.36 Z" />
</g>
<g id="#507382ff">
</g>
<g id="#9fc2c6ff">
<path fill="#9fc2c6" opacity="1.00" d=" M 202.84 103.63 C 206.15 103.58 209.47 103.56 212.78 103.51 C 214.70 104.21 217.52 104.20 218.46 106.37 C 219.52 109.39 219.84 112.79 219.02 115.91 C 218.68 117.71 216.62 117.69 215.25 118.17 C 211.84 118.29 208.43 118.17 205.03 118.18 C 208.63 116.37 212.94 118.29 216.50 116.49 C 217.67 112.78 216.74 108.57 214.75 105.31 C 211.24 104.22 207.50 104.95 203.90 104.51 C 203.63 104.29 203.10 103.85 202.84 103.63 Z" />
</g>
<g id="#c6ddd9ff">
<path fill="#c6ddd9" opacity="1.00" d=" M 203.90 104.51 C 207.50 104.95 211.24 104.22 214.75 105.31 C 216.74 108.57 217.67 112.78 216.50 116.49 C 212.94 118.29 208.63 116.37 205.03 118.18 C 204.80 118.26 204.36 118.42 204.13 118.50 C 203.93 113.84 202.86 109.14 203.90 104.51 Z" />
</g>
<g id="#5c7f8dff">
</g>
<g id="#6f949fff">
</g>
<g id="#50727bff">
</g>
<g id="#b6eedbff">
<path fill="#b6eedb" opacity="1.00" d=" M 110.43 113.07 C 115.58 111.68 121.12 112.02 126.14 113.74 C 134.13 116.88 140.44 123.84 142.64 132.17 C 143.90 142.77 138.89 154.07 129.67 159.66 C 118.96 165.64 104.92 160.49 98.17 150.89 C 99.64 147.19 96.49 143.96 96.43 140.31 C 95.94 130.48 100.56 120.16 109.12 114.96 C 108.54 114.91 107.39 114.79 106.81 114.74 C 107.99 114.13 109.20 113.58 110.43 113.07 M 111.49 122.51 C 110.37 124.08 109.25 125.65 108.05 127.17 C 108.01 129.04 107.99 130.92 108.04 132.80 C 110.68 135.13 109.86 138.81 110.10 141.94 C 113.63 141.74 117.15 141.94 120.08 144.07 C 124.01 140.97 129.11 142.36 133.72 141.88 C 133.92 140.68 134.11 139.48 134.31 138.28 C 135.51 138.10 136.71 137.92 137.91 137.74 C 137.62 135.31 137.20 132.90 136.72 130.51 C 132.94 127.83 126.61 127.54 125.56 122.15 C 123.40 122.00 121.24 121.99 119.09 121.98 C 118.29 121.33 117.56 120.62 116.88 119.85 C 115.10 120.79 113.23 121.52 111.49 122.51 Z" />
</g>
<g id="#d3f5f4ff">
<path fill="#d3f5f4" opacity="1.00" d=" M 444.31 117.29 C 450.59 112.04 459.42 111.47 467.08 113.42 C 475.31 115.53 481.29 122.48 483.61 130.47 C 483.69 130.99 483.85 132.04 483.93 132.56 C 481.43 129.90 479.77 126.64 478.18 123.40 C 477.83 123.19 477.12 122.76 476.77 122.55 C 476.67 122.22 476.46 121.55 476.35 121.22 C 475.81 121.23 475.27 121.24 474.74 121.26 C 467.13 112.06 450.72 111.68 443.03 121.09 C 441.22 122.98 440.32 125.47 439.68 127.95 C 438.75 131.49 437.33 134.94 437.10 138.63 C 436.42 137.06 435.83 135.45 435.23 133.86 C 436.03 127.44 439.02 121.18 444.31 117.29 Z" />
</g>
<g id="#afeed8ff">
<path fill="#afeed8" opacity="1.00" d=" M 443.03 121.09 C 450.72 111.68 467.13 112.06 474.74 121.26 C 475.27 121.24 475.81 121.23 476.35 121.22 C 476.46 121.55 476.67 122.22 476.77 122.55 C 477.12 122.76 477.83 123.19 478.18 123.40 C 479.77 126.64 481.43 129.90 483.93 132.56 C 485.27 137.90 484.26 143.57 481.43 148.26 C 481.29 147.64 481.01 146.40 480.87 145.78 C 477.24 148.37 476.82 153.51 473.00 155.92 C 466.96 159.43 459.62 159.03 452.99 157.84 C 450.21 157.55 448.53 155.09 446.56 153.41 C 444.23 151.07 441.37 149.18 439.59 146.36 C 438.36 143.93 437.93 141.20 437.10 138.63 C 437.33 134.94 438.75 131.49 439.68 127.95 C 440.32 125.47 441.22 122.98 443.03 121.09 Z" />
</g>
<g id="#d1f3efff">
<path fill="#d1f3ef" opacity="1.00" d=" M 94.85 127.44 C 97.72 122.32 101.40 117.36 106.81 114.74 C 107.39 114.79 108.54 114.91 109.12 114.96 C 100.56 120.16 95.94 130.48 96.43 140.31 C 96.49 143.96 99.64 147.19 98.17 150.89 C 93.11 144.18 92.93 135.31 94.85 127.44 Z" />
</g>
<g id="#375a64ff">
</g>
<g id="#537681ff">
</g>
<g id="#506869ff">
</g>
<g id="#436b76ff">
</g>
<g id="#395762ff">
</g>
<g id="#b1eed4ff">
<path fill="#b1eed4" opacity="1.00" d=" M 111.49 122.51 C 113.23 121.52 115.10 120.79 116.88 119.85 C 117.56 120.62 118.29 121.33 119.09 121.98 C 121.24 121.99 123.40 122.00 125.56 122.15 C 126.61 127.54 132.94 127.83 136.72 130.51 C 137.20 132.90 137.62 135.31 137.91 137.74 C 136.71 137.92 135.51 138.10 134.31 138.28 C 134.11 139.48 133.92 140.68 133.72 141.88 C 129.11 142.36 124.01 140.97 120.08 144.07 C 117.15 141.94 113.63 141.74 110.10 141.94 C 109.86 138.81 110.68 135.13 108.04 132.80 C 107.99 130.92 108.01 129.04 108.05 127.17 C 109.25 125.65 110.37 124.08 111.49 122.51 Z" />
</g>
<g id="#769099ff">
</g>
<g id="#7d98a2ff">
</g>
<g id="#3a5867ff">
</g>
<g id="#3d6070ff">
</g>
<g id="#4e6b77ff">
</g>
<g id="#5a8ba1ff">
</g>
<g id="#4a606cff">
</g>
<g id="#97bdc5ff">
<path fill="#97bdc5" opacity="1.00" d=" M 292.85 134.13 C 297.18 133.86 301.50 133.30 305.85 133.26 C 307.35 133.34 308.87 133.47 310.38 133.60 C 310.58 138.20 310.71 142.81 310.26 147.40 L 309.45 147.56 C 308.73 143.70 310.59 137.92 306.46 135.66 C 302.03 134.48 297.36 134.86 292.85 134.13 Z" />
</g>
<g id="#f7f5eaff">
<path fill="#f7f5ea" opacity="1.00" d=" M 264.64 133.66 C 271.98 133.77 279.32 133.49 286.66 133.76 C 289.39 134.41 292.62 135.36 293.82 138.18 C 295.11 141.37 295.83 145.54 293.34 148.36 C 284.29 150.00 275.08 147.98 265.98 148.24 C 265.55 147.89 264.70 147.17 264.27 146.81 C 264.37 142.43 264.57 138.05 264.64 133.66 Z" />
</g>
<g id="#cde1deff">
<path fill="#cde1de" opacity="1.00" d=" M 286.66 133.76 C 288.72 133.86 290.79 133.99 292.85 134.13 C 297.36 134.86 302.03 134.48 306.46 135.66 C 310.59 137.92 308.73 143.70 309.45 147.56 C 308.27 148.06 307.07 148.52 305.87 148.94 C 304.99 149.03 304.13 149.12 303.26 149.18 C 300.40 149.33 297.56 149.61 294.70 149.78 C 285.09 149.81 275.38 149.92 265.85 148.55 L 265.98 148.24 C 275.08 147.98 284.29 150.00 293.34 148.36 C 295.83 145.54 295.11 141.37 293.82 138.18 C 292.62 135.36 289.39 134.41 286.66 133.76 Z" />
</g>
<g id="#c4eff1ff">
<path fill="#c4eff1" opacity="1.00" d=" M 438.63 149.31 C 435.85 144.66 434.45 139.27 435.23 133.86 C 435.83 135.45 436.42 137.06 437.10 138.63 C 437.93 141.20 438.36 143.93 439.59 146.36 C 441.37 149.18 444.23 151.07 446.56 153.41 C 448.53 155.09 450.21 157.55 452.99 157.84 C 459.62 159.03 466.96 159.43 473.00 155.92 C 476.82 153.51 477.24 148.37 480.87 145.78 C 481.01 146.40 481.29 147.64 481.43 148.26 C 478.69 152.96 475.28 157.75 470.23 160.13 C 458.88 165.00 444.72 159.96 438.63 149.31 Z" />
</g>
<g id="#4b6f7dff">
</g>
<g id="#66848dff">
</g>
<g id="#537582ff">
</g>
<g id="#fcfbf0ff">
<path fill="#fcfbf0" opacity="1.00" d=" M 249.02 148.68 C 253.48 148.65 257.95 148.88 262.40 148.57 C 263.69 149.13 265.03 150.34 264.56 151.95 C 264.62 156.40 264.57 160.85 264.29 165.29 C 259.07 165.51 253.86 164.97 248.69 164.34 C 248.71 160.30 248.60 156.27 248.76 152.24 C 248.83 151.35 248.96 149.57 249.02 148.68 Z" />
<path fill="#fcfbf0" opacity="1.00" d=" M 122.33 285.70 C 123.77 285.50 125.21 285.38 126.66 285.26 C 130.37 285.51 134.08 285.84 137.80 286.03 C 137.95 287.51 138.12 289.00 138.26 290.49 C 138.89 298.18 138.21 305.91 138.65 313.61 C 138.70 314.71 138.76 315.81 138.82 316.91 C 146.72 317.13 154.63 316.89 162.53 316.89 C 164.89 316.97 167.25 317.09 169.61 317.22 C 170.11 321.58 170.44 325.97 170.16 330.36 C 170.10 331.17 170.03 331.98 169.96 332.80 C 166.20 332.81 162.43 332.87 158.67 332.94 C 152.09 332.96 145.49 332.55 138.92 332.97 C 137.65 338.22 138.71 343.75 138.39 349.11 C 138.33 354.48 138.25 359.86 138.42 365.24 C 138.37 370.74 137.90 376.22 137.51 381.71 C 133.08 381.94 128.39 382.44 124.19 380.71 C 121.15 379.43 121.56 375.65 121.50 372.95 C 121.77 359.64 121.69 346.33 121.96 333.02 C 116.97 332.52 111.95 333.12 106.95 333.04 C 106.63 331.50 106.30 329.96 106.05 328.41 C 106.02 325.25 106.10 322.08 106.42 318.93 C 106.48 318.33 106.62 317.15 106.69 316.55 C 111.84 316.68 117.02 316.89 122.16 316.28 C 122.10 315.80 121.99 314.84 121.93 314.36 C 122.25 304.81 122.22 295.25 122.33 285.70 Z" />
<path fill="#fcfbf0" opacity="1.00" d=" M 84.87 406.86 C 94.71 399.06 107.69 395.84 120.08 396.43 C 131.05 397.67 142.47 399.83 151.58 406.46 C 156.81 410.37 161.36 415.18 165.22 420.45 C 180.00 441.84 177.14 473.44 159.20 492.15 C 150.58 500.16 139.92 506.18 128.26 508.29 C 121.45 508.55 114.61 508.79 107.81 508.18 C 91.65 505.27 76.64 495.64 68.55 481.17 C 65.12 474.99 62.74 468.24 61.76 461.23 C 61.71 460.64 61.61 459.45 61.56 458.86 C 60.40 446.92 63.05 434.70 68.87 424.23 C 73.04 417.51 78.53 411.59 84.87 406.86 M 108.04 416.00 C 97.45 418.53 88.40 425.98 83.20 435.45 C 79.91 442.68 78.19 450.99 79.95 458.86 C 79.78 461.56 81.10 464.18 82.10 466.66 C 82.54 469.23 83.96 471.48 85.38 473.63 C 89.89 482.89 100.07 488.01 109.82 489.95 C 114.13 491.06 118.64 490.85 123.05 490.77 C 130.31 490.51 137.03 487.00 142.49 482.40 C 147.59 478.64 150.66 472.98 153.41 467.43 C 154.44 464.62 155.85 461.74 155.71 458.69 C 157.03 453.38 156.44 447.80 155.37 442.50 C 153.36 432.32 145.82 423.83 136.73 419.21 C 127.85 415.24 117.56 413.06 108.04 416.00 Z" />
<path fill="#fcfbf0" opacity="1.00" d=" M 420.59 410.47 C 431.47 401.30 445.84 396.72 459.99 397.17 C 472.66 397.27 485.78 400.40 495.81 408.48 C 496.76 409.31 497.69 410.18 498.58 411.09 C 504.45 417.86 510.24 425.01 513.16 433.63 C 514.97 439.43 516.11 445.40 516.79 451.43 C 516.53 456.84 516.77 462.34 515.38 467.62 C 512.53 478.98 506.06 489.51 496.83 496.78 C 491.75 500.85 485.87 503.75 479.89 506.25 C 459.51 514.18 435.88 506.96 420.15 492.67 C 417.46 489.99 414.92 487.13 412.66 484.08 C 411.34 481.92 410.05 479.75 408.85 477.53 C 407.34 474.51 406.14 471.36 405.02 468.19 C 403.20 461.77 402.67 455.11 402.79 448.47 C 403.45 441.91 404.93 435.44 407.27 429.28 C 410.64 422.34 414.78 415.64 420.59 410.47 M 450.63 416.22 C 442.98 417.88 435.29 421.39 430.51 427.82 C 420.74 439.05 417.77 456.70 425.52 469.78 C 429.89 481.01 441.20 488.69 452.95 490.51 C 461.60 492.76 470.68 490.53 478.53 486.71 C 483.01 484.52 486.44 480.81 489.86 477.29 C 494.13 471.61 497.56 465.16 498.19 457.97 L 497.97 457.48 C 498.87 451.98 498.04 446.41 497.06 440.99 C 494.96 433.86 490.75 426.86 484.05 423.32 C 480.43 420.27 475.98 418.31 471.46 417.01 C 469.56 414.36 465.90 414.81 463.04 414.52 C 458.88 414.59 454.31 413.81 450.63 416.22 Z" />
</g>
<g id="#42586aff">
</g>
<g id="#567989ff">
</g>
<g id="#3d5567ff">
</g>
<g id="#fefbeeff">
<path fill="#fefbee" opacity="1.00" d=" M 308.92 148.64 C 314.23 148.72 319.54 149.28 324.87 148.96 C 325.39 152.96 325.42 157.00 325.35 161.04 C 325.18 172.21 325.30 183.38 325.19 194.55 C 324.87 194.88 324.23 195.54 323.91 195.87 C 320.81 195.85 317.72 195.98 314.63 196.08 C 312.96 195.90 311.28 195.76 309.67 195.32 C 308.91 192.60 308.88 189.74 308.84 186.94 C 308.72 174.17 308.84 161.40 308.92 148.64 Z" />
</g>
<g id="#486775ff">
</g>
<g id="#55798aff">
</g>
<g id="#60808cff">
</g>
<g id="#587f90ff">
</g>
<g id="#658895ff">
</g>
<g id="#4f6e7aff">
</g>
<g id="#577a8eff">
</g>
<g id="#486776ff">
</g>
<g id="#fdfdefff">
<path fill="#fdfdef" opacity="1.00" d=" M 341.92 164.58 C 346.80 164.37 351.69 164.37 356.58 164.25 C 356.86 178.96 356.90 193.67 357.03 208.39 C 356.94 208.96 356.75 210.09 356.66 210.66 C 355.94 210.85 354.50 211.22 353.78 211.40 C 349.70 211.55 345.62 211.55 341.55 211.49 C 341.13 209.36 340.85 207.19 340.83 205.01 C 340.76 191.58 340.95 178.14 341.51 164.72 L 341.92 164.58 Z" />
</g>
<g id="#d8eeeaff">
<path fill="#d8eeea" opacity="1.00" d=" M 233.52 164.79 C 238.19 165.15 242.88 165.21 247.56 164.83 L 248.50 164.80 C 248.65 168.04 248.63 171.27 248.55 174.51 C 248.19 176.77 247.89 179.03 247.70 181.32 C 243.13 180.49 238.48 180.63 233.89 180.01 C 233.37 174.95 233.33 169.86 233.52 164.79 Z" />
</g>
<g id="#4f7281ff">
</g>
<g id="#aaddd8ff">
<path fill="#aaddd8" opacity="1.00" d=" M 248.55 174.51 L 248.82 173.27 C 248.93 175.66 249.18 178.05 249.28 180.45 C 249.03 185.15 247.42 190.38 250.39 194.60 C 255.47 195.99 261.00 194.74 266.22 195.79 C 255.41 195.95 244.61 195.50 233.81 195.90 C 233.35 195.89 232.43 195.87 231.98 195.86 C 232.34 195.54 233.07 194.89 233.43 194.57 C 233.60 191.89 233.80 189.22 233.94 186.54 C 234.07 184.36 234.08 182.18 233.89 180.01 C 238.48 180.63 243.13 180.49 247.70 181.32 C 247.89 179.03 248.19 176.77 248.55 174.51 Z" />
</g>
<g id="#4f6f7dff">
</g>
<g id="#6a8b98ff">
</g>
<g id="#caebe3ff">
<path fill="#caebe3" opacity="1.00" d=" M 249.28 180.45 L 249.69 180.25 C 263.46 180.69 277.32 181.43 291.00 179.38 C 291.44 179.76 292.31 180.53 292.74 180.91 C 293.02 185.98 292.92 191.08 293.73 196.11 C 284.57 196.49 275.37 196.33 266.22 195.79 C 261.00 194.74 255.47 195.99 250.39 194.60 C 247.42 190.38 249.03 185.15 249.28 180.45 Z" />
</g>
<g id="#325a61ff">
</g>
<g id="#466672ff">
</g>
<g id="#5e8397ff">
</g>
<g id="#abc1cfff">
<path fill="#abc1cf" opacity="1.00" d=" M 437.65 189.96 C 443.47 191.20 448.98 193.81 454.99 194.19 C 461.77 194.99 468.60 194.32 475.29 193.11 C 471.65 194.40 467.81 195.10 463.95 195.14 C 454.98 195.32 445.66 194.30 437.65 189.96 Z" />
</g>
<g id="#f2f5edff">
<path fill="#f2f5ed" opacity="1.00" d=" M 161.81 195.19 C 163.50 194.87 165.18 194.55 166.88 194.28 C 168.40 194.48 169.90 194.82 171.34 195.35 C 171.02 200.40 171.31 205.45 171.11 210.50 L 171.02 211.56 C 165.67 211.92 160.31 211.82 154.97 211.32 C 152.96 210.84 151.19 209.71 149.92 208.08 C 153.03 203.03 157.64 199.30 161.81 195.19 Z" />
</g>
<g id="#4d6f7eff">
</g>
<g id="#435e67ff">
</g>
<g id="#fcf9edff">
<path fill="#fcf9ed" opacity="1.00" d=" M 203.12 196.11 C 203.46 196.10 204.12 196.06 204.46 196.05 C 207.83 196.24 211.21 196.52 214.60 196.43 C 220.40 196.43 226.18 195.85 231.98 195.86 C 232.43 195.87 233.35 195.89 233.81 195.90 C 233.78 201.23 233.84 206.57 233.11 211.86 C 228.37 212.30 223.62 212.44 218.86 212.28 L 219.18 213.41 C 219.11 219.20 218.59 224.99 219.07 230.79 C 218.72 234.60 219.85 239.35 216.72 242.24 C 212.00 242.91 207.19 242.63 202.54 241.65 C 202.83 226.48 201.85 211.25 203.12 196.11 Z" />
</g>
<g id="#415960ff">
</g>
<g id="#48636eff">
</g>
<g id="#567886ff">
</g>
<g id="#557b8dff">
</g>
<g id="#4d6672ff">
</g>
<g id="#577e8eff">
</g>
<g id="#628390ff">
</g>
<g id="#5a7685ff">
</g>
<g id="#cdd2ceff">
</g>
<g id="#b7e7dcff">
<path fill="#b7e7dc" opacity="1.00" d=" M 494.48 205.55 C 494.68 205.49 495.07 205.37 495.26 205.30 L 496.00 205.07 C 495.79 211.94 497.34 218.97 495.71 225.73 C 494.40 226.06 493.08 226.26 491.74 226.33 C 491.20 223.26 490.68 220.14 490.96 217.02 C 491.01 212.90 493.55 209.46 494.48 205.55 Z" />
</g>
<g id="#cdece4ff">
<path fill="#cdece4" opacity="1.00" d=" M 479.24 210.61 C 484.62 209.88 489.28 206.91 494.48 205.55 C 493.55 209.46 491.01 212.90 490.96 217.02 C 490.68 220.14 491.20 223.26 491.74 226.33 C 488.43 226.29 485.13 226.27 481.83 226.18 C 481.26 226.11 480.12 225.98 479.55 225.91 C 479.44 224.70 479.23 223.50 479.03 222.31 C 478.91 218.41 479.22 214.51 479.24 210.61 Z" />
</g>
<g id="#fcfbebff">
<path fill="#fcfbeb" opacity="1.00" d=" M 75.91 207.54 L 76.89 207.50 C 84.02 207.89 90.98 209.79 98.13 209.87 C 102.03 210.16 105.93 210.51 109.84 210.62 C 113.37 210.79 116.90 211.02 120.44 211.09 C 117.16 212.16 113.73 212.56 110.30 212.28 C 110.79 212.84 111.28 213.39 111.77 213.95 C 110.30 213.71 108.83 213.46 107.36 213.20 C 107.85 215.16 108.50 217.10 108.64 219.12 C 108.26 221.68 107.15 224.14 107.32 226.77 C 107.06 235.95 107.50 245.14 107.12 254.31 C 106.81 255.18 106.48 256.05 106.15 256.92 L 105.51 256.89 C 100.86 256.71 96.20 256.78 91.55 256.58 C 91.29 256.24 90.77 255.56 90.51 255.22 C 89.99 245.94 90.50 236.64 90.74 227.36 C 85.39 226.45 79.83 227.54 74.58 226.00 C 74.01 219.83 74.23 213.54 75.91 207.54 Z" />
</g>
<g id="#597c89ff">
</g>
<g id="#5a808eff">
</g>
<g id="#6f8e9aff">
</g>
<g id="#466e7bff">
</g>
<g id="#c9e1e8ff">
<path fill="#c9e1e8" opacity="1.00" d=" M 405.32 211.14 C 409.73 209.50 414.46 210.17 419.05 209.95 C 422.91 209.81 426.79 209.70 430.63 210.23 L 430.65 211.34 C 422.21 210.95 413.76 211.38 405.32 211.14 Z" />
</g>
<g id="#2c4d5eff">
</g>
<g id="#f1f3e7ff">
<path fill="#f1f3e7" opacity="1.00" d=" M 120.44 211.09 C 121.14 211.04 122.53 210.93 123.23 210.87 C 123.68 216.04 123.40 221.21 122.88 226.36 C 117.69 226.57 112.51 226.66 107.32 226.77 C 107.15 224.14 108.26 221.68 108.64 219.12 C 108.50 217.10 107.85 215.16 107.36 213.20 C 108.83 213.46 110.30 213.71 111.77 213.95 C 111.28 213.39 110.79 212.84 110.30 212.28 C 113.73 212.56 117.16 212.16 120.44 211.09 Z" />
</g>
<g id="#a7c3c5ff">
</g>
<g id="#fbf9edff">
<path fill="#fbf9ed" opacity="1.00" d=" M 171.11 210.50 C 172.66 210.71 174.20 210.94 175.76 211.16 C 177.28 211.38 178.82 211.45 180.37 211.43 C 182.52 211.49 184.68 211.50 186.83 211.77 C 187.28 219.09 186.81 226.41 186.76 233.73 C 186.38 236.68 185.90 239.62 185.59 242.58 C 180.68 242.62 175.86 243.55 171.08 244.54 C 170.80 248.29 170.84 252.04 170.92 255.79 C 171.08 260.15 170.16 264.60 171.18 268.89 C 172.67 269.54 174.35 269.37 175.94 269.47 C 184.16 269.42 192.36 269.89 200.56 270.34 C 200.72 275.15 200.75 279.96 200.54 284.77 C 195.26 285.44 189.95 284.88 184.66 285.07 C 174.78 284.54 164.87 285.73 155.02 284.71 C 154.92 284.18 154.72 283.10 154.62 282.56 L 154.60 282.25 C 154.48 269.05 154.52 255.85 154.53 242.65 L 154.65 241.88 L 156.14 241.95 C 160.49 242.32 164.86 242.44 169.23 242.39 L 170.47 242.34 C 170.88 232.09 169.88 221.78 171.02 211.56 L 171.11 210.50 Z" />
<path fill="#fbf9ed" opacity="1.00" d=" M 341.24 397.59 C 342.60 397.60 343.96 397.50 345.32 397.41 C 349.39 397.30 353.47 397.36 357.55 397.10 C 359.80 397.16 362.06 397.28 364.32 397.26 C 362.30 397.63 360.28 398.00 358.28 398.39 C 357.16 403.85 357.90 409.45 357.05 414.95 C 356.52 418.75 356.93 422.59 357.48 426.37 C 357.42 431.33 357.29 436.30 356.88 441.25 C 352.27 441.21 347.61 441.71 343.03 440.96 C 341.13 440.77 341.05 438.49 340.84 437.06 C 340.45 429.90 340.67 422.72 340.89 415.56 C 341.04 413.89 341.16 412.22 341.17 410.54 C 341.23 406.23 341.26 401.91 341.24 397.59 Z" />
</g>
<g id="#33444bff">
</g>
<g id="#2b4451ff">
</g>
<g id="#476370ff">
</g>
<g id="#647980ff">
</g>
<g id="#446977ff">
</g>
<g id="#deece4ff">
<path fill="#deece4" opacity="1.00" d=" M 123.89 225.78 C 128.57 225.66 133.28 225.10 137.94 225.78 C 138.27 225.83 138.92 225.93 139.25 225.98 C 140.82 226.46 142.37 226.99 143.92 227.51 C 142.05 228.02 139.69 227.83 138.28 229.32 C 137.67 232.38 137.86 235.52 137.80 238.63 C 133.47 239.69 129.07 240.43 124.82 241.77 C 122.90 239.63 123.07 236.71 123.06 234.04 C 123.07 233.34 123.08 231.93 123.09 231.23 C 123.30 229.40 123.60 227.59 123.89 225.78 Z" />
</g>
<g id="#567579ff">
</g>
<g id="#cfede3ff">
<path fill="#cfede3" opacity="1.00" d=" M 139.25 225.98 C 142.65 226.35 146.08 226.50 149.48 226.12 C 150.83 226.46 152.96 226.01 153.60 227.67 C 154.01 232.54 154.33 237.42 154.30 242.30 C 144.25 242.85 134.20 242.05 124.16 241.97 L 124.82 241.77 C 129.07 240.43 133.47 239.69 137.80 238.63 C 137.86 235.52 137.67 232.38 138.28 229.32 C 139.69 227.83 142.05 228.02 143.92 227.51 C 142.37 226.99 140.82 226.46 139.25 225.98 Z" />
</g>
<g id="#51727dff">
</g>
<g id="#557c8cff">
</g>
<g id="#51696dff">
</g>
<g id="#3a5767ff">
</g>
<g id="#e6eee2ff">
<path fill="#e6eee2" opacity="1.00" d=" M 495.63 226.15 C 499.74 226.14 503.89 225.82 507.99 226.32 C 509.16 226.39 509.98 227.34 510.65 228.21 C 511.55 233.02 511.76 237.96 510.74 242.77 C 506.22 242.96 501.68 242.94 497.17 242.66 C 496.66 242.48 495.64 242.12 495.13 241.94 C 495.09 236.67 495.28 231.40 495.63 226.15 Z" />
</g>
<g id="#39525bff">
</g>
<g id="#f3f3e7ff">
<path fill="#f3f3e7" opacity="1.00" d=" M 358.32 226.49 C 377.02 226.99 395.76 225.87 414.43 227.24 C 412.76 229.20 409.96 228.00 407.76 228.19 C 408.87 229.06 412.30 228.62 411.69 230.71 C 409.82 233.19 408.09 235.76 406.51 238.43 C 405.47 240.41 403.00 239.53 401.23 239.60 C 401.39 240.60 401.57 241.60 401.71 242.61 C 401.47 243.07 400.99 244.00 400.75 244.46 C 400.72 243.89 400.67 242.75 400.64 242.18 C 395.84 241.46 391.03 242.43 386.22 242.38 C 385.13 246.52 385.98 250.84 385.15 255.01 C 385.07 255.36 384.90 256.06 384.81 256.41 C 385.39 251.93 385.44 247.41 385.07 242.91 C 380.21 242.37 375.34 241.74 370.45 241.68 C 366.08 241.75 361.70 241.74 357.33 241.84 C 355.01 236.99 355.91 231.14 358.32 226.49 Z" />
</g>
<g id="#fcfaefff">
<path fill="#fcfaef" opacity="1.00" d=" M 414.43 227.24 C 414.47 227.68 414.53 228.55 414.56 228.99 C 414.75 233.21 415.01 237.42 415.32 241.64 C 420.35 242.15 425.46 242.47 430.47 241.69 C 430.75 246.92 430.76 252.18 430.38 257.41 C 425.52 257.00 420.66 256.74 415.79 256.71 C 415.75 260.99 415.80 265.27 415.77 269.55 C 410.98 270.12 406.15 269.93 401.37 269.31 C 400.97 269.17 400.18 268.89 399.78 268.74 C 399.72 262.48 400.02 256.23 400.25 249.97 C 400.31 248.12 400.47 246.28 400.75 244.46 C 400.99 244.00 401.47 243.07 401.71 242.61 C 401.57 241.60 401.39 240.60 401.23 239.60 C 403.00 239.53 405.47 240.41 406.51 238.43 C 408.09 235.76 409.82 233.19 411.69 230.71 C 412.30 228.62 408.87 229.06 407.76 228.19 C 409.96 228.00 412.76 229.20 414.43 227.24 Z" />
<path fill="#fcfaef" opacity="1.00" d=" M 264.84 382.23 C 265.10 381.82 265.63 380.99 265.90 380.58 C 270.55 380.86 275.26 380.77 279.84 381.70 C 280.50 391.69 279.74 401.77 281.04 411.72 C 285.01 411.79 288.97 411.78 292.94 411.73 C 293.39 416.56 293.33 421.41 293.30 426.25 C 293.01 426.56 292.43 427.17 292.14 427.47 C 284.51 427.79 276.86 427.29 269.24 427.81 C 267.84 427.24 266.27 426.95 265.11 425.95 C 264.51 424.39 264.51 422.68 264.44 421.04 C 264.33 408.11 263.78 395.14 264.84 382.23 Z" />
<path fill="#fcfaef" opacity="1.00" d=" M 295.35 382.90 C 295.31 381.86 295.76 381.13 296.69 380.70 C 305.92 380.77 315.16 380.90 324.39 380.59 C 326.88 390.02 323.29 399.74 325.34 409.24 C 325.58 414.04 325.55 418.85 325.75 423.66 C 325.64 426.22 325.69 428.79 325.87 431.35 C 325.77 434.96 325.60 438.57 325.35 442.17 C 320.08 442.07 314.63 442.90 309.48 441.51 C 308.76 436.35 309.39 431.11 309.32 425.92 C 309.60 416.32 309.29 406.70 309.60 397.10 C 304.92 397.17 300.25 396.85 295.59 396.69 C 295.43 392.10 294.78 387.49 295.35 382.90 Z" />
</g>
<g id="#48656bff">
</g>
<g id="#19465aff">
</g>
<g id="#4b717fff">
</g>
<g id="#d0ece0ff">
<path fill="#d0ece0" opacity="1.00" d=" M 185.59 242.58 C 185.90 239.62 186.38 236.68 186.76 233.73 C 186.91 241.36 186.44 248.97 186.39 256.60 C 181.23 257.12 175.99 256.97 170.92 255.79 C 170.84 252.04 170.80 248.29 171.08 244.54 C 175.86 243.55 180.68 242.62 185.59 242.58 Z" />
</g>
<g id="#597b8bff">
</g>
<g id="#c0dad2ff">
<path fill="#c0dad2" opacity="1.00" d=" M 61.65 242.43 C 63.88 238.17 69.12 238.35 73.26 238.31 C 73.67 239.34 74.06 240.39 74.41 241.45 C 74.74 243.21 75.00 244.99 75.20 246.78 C 75.15 247.65 75.06 249.39 75.01 250.25 C 74.41 248.19 74.03 245.98 72.80 244.19 C 69.71 241.56 65.39 242.25 61.65 242.43 Z" />
</g>
<g id="#293a42ff">
</g>
<g id="#afc4d2ff">
<path fill="#afc4d2" opacity="1.00" d=" M 296.39 239.17 C 300.75 238.87 304.73 240.94 308.67 242.48 C 312.13 244.26 316.34 245.56 318.46 249.06 C 311.92 244.61 304.65 241.33 297.00 239.36 C 297.00 244.31 297.00 249.26 296.96 254.22 C 295.83 249.28 296.48 244.18 296.39 239.17 Z" />
</g>
<g id="#3a5264ff">
</g>
<g id="#3d5c68ff">
</g>
<g id="#e5e8dcff">
<path fill="#e5e8dc" opacity="1.00" d=" M 370.45 241.68 C 375.34 241.74 380.21 242.37 385.07 242.91 C 385.44 247.41 385.39 251.93 384.81 256.41 L 384.78 256.59 C 380.24 256.65 375.70 256.68 371.16 256.63 C 370.35 253.11 370.29 249.49 370.40 245.90 C 370.40 244.49 370.42 243.08 370.45 241.68 Z" />
</g>
<g id="#3c505aff">
</g>
<g id="#e5ecdfff">
<path fill="#e5ecdf" opacity="1.00" d=" M 61.65 242.43 C 65.39 242.25 69.71 241.56 72.80 244.19 C 74.03 245.98 74.41 248.19 75.01 250.25 C 75.12 251.43 75.22 252.61 75.30 253.80 C 71.36 250.65 66.04 252.28 61.45 252.28 C 60.86 253.62 60.27 254.96 59.74 256.32 C 59.76 254.71 59.77 253.11 59.76 251.50 C 60.33 248.46 60.81 245.41 61.65 242.43 Z" />
</g>
<g id="#446777ff">
</g>
<g id="#384a5bff">
</g>
<g id="#38535fff">
</g>
<g id="#567780ff">
</g>
<g id="#68868eff">
</g>
<g id="#365666ff">
</g>
<g id="#6e91a1ff">
</g>
<g id="#587684ff">
</g>
<g id="#819aa2ff">
</g>
<g id="#527481ff">
</g>
<g id="#4c7182ff">
</g>
<g id="#668491ff">
</g>
<g id="#faf8eaff">
<path fill="#faf8ea" opacity="1.00" d=" M 61.45 252.28 C 66.04 252.28 71.36 250.65 75.30 253.80 C 75.63 259.13 74.87 264.44 74.60 269.75 C 69.56 269.45 64.50 269.69 59.48 270.17 C 59.36 265.55 59.34 260.93 59.74 256.32 C 60.27 254.96 60.86 253.62 61.45 252.28 Z" />
</g>
<g id="#879ea6ff">
</g>
<g id="#5b7e8dff">
</g>
<g id="#fefbefff">
<path fill="#fefbef" opacity="1.00" d=" M 447.17 255.66 C 451.67 255.81 456.39 256.44 460.54 254.24 C 460.36 254.92 460.16 255.61 459.95 256.29 C 460.59 256.41 461.86 256.65 462.49 256.76 C 463.94 270.92 463.15 285.16 463.52 299.36 C 464.41 299.34 466.17 299.29 467.05 299.26 C 470.93 299.40 474.90 299.09 478.70 300.05 C 479.90 308.76 479.16 317.59 479.37 326.36 C 479.26 328.64 479.18 330.93 478.85 333.19 C 473.71 333.35 468.61 332.68 463.52 332.24 C 462.25 322.16 463.05 311.91 462.78 301.77 C 462.81 301.32 462.86 300.44 462.88 300.00 C 446.96 300.85 431.00 301.23 415.05 300.77 C 415.05 300.30 415.05 299.34 415.04 298.87 C 415.02 294.12 414.28 289.32 415.38 284.63 C 417.39 284.55 419.41 284.44 421.43 284.33 C 429.76 284.67 438.13 284.81 446.43 283.82 L 447.25 283.89 C 447.12 282.43 447.02 280.97 446.90 279.51 C 446.78 271.56 446.57 263.60 447.17 255.66 Z" />
<path fill="#fefbef" opacity="1.00" d=" M 403.17 515.48 C 407.58 513.31 410.67 508.95 415.50 507.64 C 419.48 511.21 423.41 514.88 428.01 517.65 C 428.12 518.00 428.34 518.70 428.45 519.05 C 415.93 530.76 400.19 538.10 384.83 545.27 C 374.26 549.95 363.34 553.88 352.25 557.13 C 346.68 558.29 341.26 560.06 335.76 561.46 C 334.62 561.68 333.48 561.90 332.35 562.13 C 329.21 562.28 326.06 562.48 322.97 563.12 C 309.74 565.22 296.34 565.77 282.96 565.44 C 266.99 565.94 251.39 562.00 235.64 560.15 C 217.95 555.47 200.32 550.28 183.75 542.38 C 175.24 538.23 166.77 533.96 158.70 529.00 C 155.29 526.53 151.56 524.37 148.79 521.16 C 147.69 520.20 148.21 518.75 148.47 517.56 C 152.53 514.90 157.17 513.03 160.54 509.42 C 160.85 509.25 161.46 508.91 161.76 508.74 C 162.23 509.06 163.15 509.70 163.62 510.03 C 169.15 514.26 175.30 517.57 181.63 520.43 C 189.70 524.39 197.77 528.37 206.03 531.92 C 211.97 534.43 218.22 536.06 224.37 537.98 C 234.44 541.32 244.75 543.94 255.23 545.61 C 265.68 547.49 276.30 548.40 286.91 548.52 C 302.13 548.67 317.06 545.40 332.01 543.00 C 342.18 541.34 351.83 537.63 361.65 534.64 C 365.23 533.53 368.67 532.02 372.12 530.56 C 376.09 528.88 380.14 527.37 383.98 525.42 C 390.36 522.07 396.97 519.16 403.17 515.48 Z" />
</g>
<g id="#fbfaf0ff">
<path fill="#fbfaf0" opacity="1.00" d=" M 122.72 256.46 C 127.60 256.30 132.49 256.23 137.37 256.58 C 137.67 257.80 137.93 259.03 138.16 260.28 C 138.38 262.82 138.19 265.37 138.07 267.92 C 138.02 268.60 137.93 269.97 137.88 270.65 C 132.73 271.19 127.56 270.89 122.41 270.60 C 122.65 265.89 122.54 261.17 122.72 256.46 Z" />
</g>
<g id="#374d5dff">
</g>
<g id="#496e7eff">
</g>
<g id="#fcfbe9ff">
<path fill="#fcfbe9" opacity="1.00" d=" M 479.40 257.85 C 485.57 257.63 491.74 257.59 497.91 257.95 C 501.94 258.44 506.24 257.58 510.12 258.82 C 510.21 259.06 510.41 259.52 510.50 259.75 C 511.54 266.14 511.22 272.62 511.35 279.06 C 511.38 289.03 511.72 298.99 511.56 308.97 C 511.38 316.91 511.82 324.91 510.59 332.79 C 505.70 333.77 500.77 332.89 495.87 332.63 C 494.31 328.25 495.21 323.50 494.85 318.95 C 494.97 307.50 494.63 296.04 495.04 284.60 C 495.19 281.39 495.88 278.12 495.25 274.93 C 494.21 273.61 492.46 273.81 490.98 273.68 C 487.13 273.45 483.27 273.80 479.52 274.70 C 479.36 269.09 479.38 263.47 479.40 257.85 Z" />
</g>
<g id="#638695ff">
</g>
<g id="#618693ff">
</g>
<g id="#5d808eff">
</g>
<g id="#7e959eff">
</g>
<g id="#5c8594ff">
</g>
<g id="#5d8796ff">
</g>
<g id="#acc4c9ff">
</g>
<g id="#4b626aff">
</g>
<g id="#e1e6dcff">
<path fill="#e1e6dc" opacity="1.00" d=" M 479.52 274.70 C 483.27 273.80 487.13 273.45 490.98 273.68 C 492.46 273.81 494.21 273.61 495.25 274.93 C 495.88 278.12 495.19 281.39 495.04 284.60 C 490.12 285.29 485.15 285.47 480.20 285.05 C 479.73 281.62 479.52 278.16 479.52 274.70 Z" />
</g>
<g id="#648696ff">
</g>
<g id="#526e7aff">
</g>
<g id="#364c56ff">
</g>
<g id="#72909aff">
</g>
<g id="#859ea3ff">
</g>
<g id="#f9f7ebff">
<path fill="#f9f7eb" opacity="1.00" d=" M 74.19 285.45 C 75.52 285.38 76.85 285.23 78.19 285.13 C 87.41 284.95 96.64 284.44 105.88 284.60 C 106.00 285.04 106.25 285.91 106.38 286.35 C 106.23 296.24 106.65 306.14 106.08 316.03 C 96.92 317.08 87.69 316.44 78.49 316.84 C 71.93 316.64 65.36 316.88 58.79 316.76 C 58.75 311.55 58.59 306.35 58.64 301.15 L 60.08 300.76 C 64.68 300.14 69.34 300.47 73.96 300.70 C 74.39 295.63 74.39 290.53 74.19 285.45 Z" />
</g>
<g id="#3f5960ff">
</g>
<g id="#5d7c81ff">
</g>
<g id="#475c66ff">
</g>
<g id="#3f5e6cff">
</g>
<g id="#cbe9e2ff">
<path fill="#cbe9e2" opacity="1.00" d=" M 374.62 300.58 C 383.05 300.29 391.56 299.38 399.94 300.77 C 400.38 306.03 400.25 311.32 400.35 316.59 C 399.13 316.81 397.90 316.98 396.69 317.18 C 390.86 316.44 384.99 316.58 379.14 316.20 C 377.63 315.97 376.13 315.65 374.64 315.34 C 374.35 310.42 374.37 305.50 374.62 300.58 Z" />
</g>
<g id="#3a5962ff">
</g>
<g id="#fbf9f0ff">
<path fill="#fbf9f0" opacity="1.00" d=" M 170.29 301.23 C 180.70 300.47 191.15 301.59 201.58 301.19 C 201.79 306.24 202.20 311.34 201.44 316.37 C 195.34 317.37 189.13 317.10 182.97 317.14 C 178.73 317.06 174.42 317.26 170.28 316.17 C 169.89 311.20 169.95 306.20 170.29 301.23 Z" />
</g>
<g id="#476675ff">
</g>
<g id="#44666dff">
</g>
<g id="#27434eff">
</g>
<g id="#1a3543ff">
</g>
<g id="#335f6eff">
</g>
<g id="#6c8691ff">
</g>
<g id="#61828eff">
</g>
<g id="#305060ff">
</g>
<g id="#4c6472ff">
</g>
<g id="#fefbecff">
<path fill="#fefbec" opacity="1.00" d=" M 431.33 316.26 C 436.36 316.32 441.41 316.25 446.42 316.75 C 447.84 324.42 447.17 332.23 447.41 339.98 C 447.22 352.63 448.02 365.38 446.06 377.93 C 445.68 381.48 441.55 381.00 438.97 381.01 C 436.19 380.81 432.60 381.11 430.83 378.50 C 430.77 369.66 431.02 360.83 431.22 351.99 C 431.57 340.08 430.35 328.15 431.33 316.26 Z" />
</g>
<g id="#597a88ff">
</g>
<g id="#35555cff">
</g>
<g id="#496371ff">
</g>
<g id="#3e5f6cff">
</g>
<g id="#406a7aff">
</g>
<g id="#638491ff">
</g>
<g id="#869da5ff">
</g>
<g id="#a8bdc3ff">
<path fill="#a8bdc3" opacity="1.00" d=" M 185.91 333.15 C 191.29 332.22 196.76 332.60 202.19 332.38 C 206.49 336.42 206.22 343.33 210.80 347.00 L 212.22 347.49 C 209.06 348.07 204.16 347.28 202.93 351.15 C 201.91 355.33 202.70 359.67 202.32 363.91 C 201.75 359.18 201.77 354.40 202.47 349.69 C 201.84 349.67 200.57 349.65 199.94 349.63 C 197.44 349.57 194.93 349.63 192.43 349.63 C 191.30 349.56 190.17 349.48 189.05 349.36 L 187.57 349.21 C 192.66 348.50 197.80 349.03 202.92 348.84 C 204.02 344.16 205.50 338.29 201.69 334.44 C 200.12 333.83 198.39 333.96 196.74 333.87 C 193.47 333.95 190.21 334.29 186.96 334.69 C 186.70 334.31 186.17 333.54 185.91 333.15 Z" />
</g>
<g id="#4a7f90ff">
</g>
<g id="#f8f6edff">
<path fill="#f8f6ed" opacity="1.00" d=" M 380.96 333.20 C 392.05 332.19 403.23 332.79 414.33 331.92 C 414.63 333.22 414.94 334.51 415.16 335.84 C 415.22 340.50 414.89 345.16 414.78 349.83 C 412.54 349.88 410.30 349.88 408.07 349.79 C 406.17 349.62 404.29 349.37 402.40 349.19 C 392.47 348.65 382.51 348.98 372.58 348.92 C 371.24 348.68 369.91 348.44 368.58 348.21 C 367.96 343.24 368.07 337.92 370.60 333.46 C 373.98 332.72 377.52 333.63 380.96 333.20 Z" />
</g>
<g id="#e2eae6ff">
<path fill="#e2eae6" opacity="1.00" d=" M 59.95 332.98 C 64.85 332.38 69.79 332.57 74.71 332.37 C 73.55 337.22 73.67 342.83 77.35 346.62 C 80.38 347.13 83.46 347.31 86.51 347.75 C 84.01 348.08 81.50 348.58 78.97 348.44 C 75.52 348.19 72.52 346.05 69.07 345.81 C 66.37 345.72 63.70 346.26 61.02 346.52 C 60.88 346.52 60.60 346.50 60.47 346.49 C 60.42 341.98 60.29 337.47 59.95 332.98 Z" />
</g>
<g id="#f6f6eaff">
<path fill="#f6f6ea" opacity="1.00" d=" M 74.71 332.37 C 80.00 332.20 85.31 332.11 90.60 332.52 C 90.26 337.46 90.21 342.43 90.09 347.39 C 88.90 347.51 87.70 347.63 86.51 347.75 C 83.46 347.31 80.38 347.13 77.35 346.62 C 73.67 342.83 73.55 337.22 74.71 332.37 Z" />
</g>
<g id="#fbf9efff">
<path fill="#fbf9ef" opacity="1.00" d=" M 170.29 333.30 C 175.50 333.11 180.71 333.54 185.91 333.15 C 186.17 333.54 186.70 334.31 186.96 334.69 C 186.76 339.08 186.89 343.47 186.75 347.86 C 186.49 348.19 185.99 348.84 185.74 349.17 C 181.23 349.04 176.73 348.83 172.24 348.48 C 171.60 349.02 171.01 349.62 170.47 350.27 C 170.53 350.86 170.65 352.04 170.71 352.63 C 169.58 357.63 170.60 362.91 168.81 367.78 C 167.56 371.51 167.57 375.54 166.24 379.23 C 162.48 380.27 158.43 379.83 154.59 380.61 L 154.46 380.61 C 154.40 379.84 154.28 378.30 154.23 377.53 C 153.91 372.75 153.77 367.96 153.96 363.17 C 154.06 358.49 153.99 353.81 154.00 349.13 C 159.36 348.17 164.82 348.93 170.21 349.12 C 170.10 348.86 169.88 348.34 169.77 348.08 L 169.90 347.40 C 170.69 342.73 170.14 338.00 170.29 333.30 Z" />
</g>
<g id="#3a535dff">
</g>
<g id="#ced9d4ff">
<path fill="#ced9d4" opacity="1.00" d=" M 186.96 334.69 C 190.21 334.29 193.47 333.95 196.74 333.87 C 195.79 338.53 195.14 343.62 197.62 347.95 C 193.99 347.98 190.37 347.87 186.75 347.86 C 186.89 343.47 186.76 339.08 186.96 334.69 Z" />
</g>
<g id="#c2cfccff">
<path fill="#c2cfcc" opacity="1.00" d=" M 196.74 333.87 C 198.39 333.96 200.12 333.83 201.69 334.44 C 205.50 338.29 204.02 344.16 202.92 348.84 C 197.80 349.03 192.66 348.50 187.57 349.21 C 187.11 349.20 186.20 349.18 185.74 349.17 C 185.99 348.84 186.49 348.19 186.75 347.86 C 190.37 347.87 193.99 347.98 197.62 347.95 C 195.14 343.62 195.79 338.53 196.74 333.87 Z" />
</g>
<g id="#c3dad1ff">
</g>
<g id="#4a707fff">
</g>
<g id="#5a7c8bff">
</g>
<g id="#c0e6dfff">
<path fill="#c0e6df" opacity="1.00" d=" M 61.02 346.52 C 63.70 346.26 66.37 345.72 69.07 345.81 C 72.52 346.05 75.52 348.19 78.97 348.44 C 81.50 348.58 84.01 348.08 86.51 347.75 C 87.70 347.63 88.90 347.51 90.09 347.39 L 90.10 348.39 C 94.97 348.87 99.87 348.16 104.73 348.63 C 106.94 353.79 105.77 359.83 106.06 365.34 C 105.57 370.57 105.86 375.83 105.78 381.07 C 103.44 381.09 101.10 381.23 98.77 381.11 C 97.29 380.91 95.81 380.74 94.33 380.59 C 91.97 380.26 89.62 379.88 87.27 379.51 C 87.26 375.36 87.78 371.23 88.07 367.09 C 87.96 366.64 87.74 365.73 87.63 365.27 C 83.58 365.02 79.52 365.30 75.49 365.75 C 74.88 363.71 74.42 361.62 74.36 359.50 C 74.40 357.37 74.50 355.24 74.64 353.13 C 74.72 351.77 74.79 350.41 74.73 349.06 C 71.12 347.05 66.68 348.02 62.71 347.60 L 61.86 347.04 L 61.02 346.52 Z" />
</g>
<g id="#496e78ff">
</g>
<g id="#274c56ff">
</g>
<g id="#f6faf3ff">
<path fill="#f6faf3" opacity="1.00" d=" M 202.93 351.15 C 204.16 347.28 209.06 348.07 212.22 347.49 C 214.08 348.20 216.43 348.47 217.66 350.21 C 218.69 355.08 218.56 360.20 217.40 365.04 C 212.37 365.81 207.23 365.70 202.27 364.53 L 202.32 363.91 C 202.70 359.67 201.91 355.33 202.93 351.15 Z" />
</g>
<g id="#f7f7eaff">
<path fill="#f7f7ea" opacity="1.00" d=" M 462.51 348.20 C 471.56 348.39 480.60 348.71 489.65 348.86 C 491.24 349.31 492.83 349.83 494.42 350.34 C 496.33 354.36 497.14 358.76 498.65 362.93 C 497.64 363.66 496.64 364.40 495.63 365.11 L 494.59 365.26 C 489.92 365.99 485.17 365.92 480.47 365.72 C 474.40 365.40 468.31 365.43 462.26 364.85 C 462.41 359.30 462.52 353.75 462.51 348.20 Z" />
</g>
<g id="#96b5bbff">
</g>
<g id="#476876ff">
</g>
<g id="#618390ff">
</g>
<g id="#9cb8b9ff">
</g>
<g id="#c8ded0ff">
<path fill="#c8ded0" opacity="1.00" d=" M 489.65 348.86 C 495.24 348.78 500.84 348.68 506.43 348.80 C 507.80 349.06 509.16 349.34 510.53 349.64 C 511.03 354.41 510.80 359.27 509.32 363.86 C 504.78 364.53 500.21 364.87 495.63 365.11 C 496.64 364.40 497.64 363.66 498.65 362.93 C 497.14 358.76 496.33 354.36 494.42 350.34 C 492.83 349.83 491.24 349.31 489.65 348.86 Z" />
</g>
<g id="#587d89ff">
</g>
<g id="#638893ff">
</g>
<g id="#4f7f8bff">
</g>
<g id="#ecf3edff">
<path fill="#ecf3ed" opacity="1.00" d=" M 168.81 367.78 C 170.60 362.91 169.58 357.63 170.71 352.63 C 171.32 356.64 171.29 360.70 171.51 364.74 L 172.44 364.90 C 176.80 365.06 181.19 364.67 185.53 365.33 C 185.91 365.43 186.68 365.63 187.06 365.73 C 187.24 370.91 187.28 376.13 186.33 381.25 C 175.76 380.99 165.10 381.90 154.59 380.61 C 158.43 379.83 162.48 380.27 166.24 379.23 C 167.57 375.54 167.56 371.51 168.81 367.78 Z" />
</g>
<g id="#516e78ff">
</g>
<g id="#537382ff">
</g>
<g id="#ddeee7ff">
<path fill="#ddeee7" opacity="1.00" d=" M 217.99 364.97 C 223.04 364.45 228.14 364.74 233.19 364.15 C 233.66 369.68 233.53 375.26 234.32 380.77 C 234.11 380.78 233.68 380.82 233.46 380.84 C 228.27 381.28 223.07 380.90 217.88 380.78 C 217.09 375.53 217.55 370.22 217.99 364.97 Z" />
</g>
<g id="#fcfbf1ff">
<path fill="#fcfbf1" opacity="1.00" d=" M 340.59 364.59 C 341.31 364.50 342.75 364.34 343.48 364.26 C 347.90 364.23 352.33 363.97 356.76 364.24 C 356.92 370.04 356.80 375.84 356.64 381.65 C 351.27 381.97 345.88 381.78 340.51 381.75 C 340.01 376.04 340.43 370.30 340.59 364.59 Z" />
</g>
<g id="#4b6671ff">
</g>
<g id="#396071ff">
</g>
<g id="#607f8dff">
</g>
<g id="#a5bfbeff">
<path fill="#a5bfbe" opacity="1.00" d=" M 480.47 365.72 C 485.17 365.92 489.92 365.99 494.59 365.26 C 496.01 370.36 496.77 375.65 496.25 380.95 C 494.00 383.28 490.66 382.31 487.81 382.25 C 488.78 381.69 489.75 381.15 490.73 380.61 C 490.47 377.20 488.99 373.81 486.21 371.73 C 484.40 370.81 482.34 370.69 480.39 370.29 C 479.75 373.82 479.54 377.42 479.73 381.01 L 478.86 380.78 C 478.38 376.23 478.81 371.63 480.09 367.24 L 480.47 365.72 Z" />
</g>
<g id="#5b8393ff">
</g>
<g id="#537478ff">
</g>
<g id="#fcfceeff">
<path fill="#fcfcee" opacity="1.00" d=" M 372.36 366.21 C 376.67 365.78 381.01 365.86 385.34 365.92 C 385.77 365.93 386.64 365.95 387.08 365.95 C 387.72 375.91 388.70 385.86 388.44 395.85 C 383.13 397.33 377.54 396.79 372.12 396.40 C 372.06 395.07 372.01 393.75 371.97 392.44 C 372.18 383.70 372.13 374.95 372.36 366.21 Z" />
</g>
<g id="#506870ff">
</g>
<g id="#7e97a1ff">
</g>
<g id="#7ba0a7ff">
</g>
<g id="#40646dff">
</g>
<g id="#72969fff">
</g>
<g id="#557e8fff">
</g>
<g id="#b4cdc7ff">
<path fill="#b4cdc7" opacity="1.00" d=" M 480.39 370.29 C 482.34 370.69 484.40 370.81 486.21 371.73 C 488.99 373.81 490.47 377.20 490.73 380.61 C 489.75 381.15 488.78 381.69 487.81 382.25 C 485.09 382.04 482.36 381.75 479.73 381.01 C 479.54 377.42 479.75 373.82 480.39 370.29 Z" />
</g>
<g id="#465e6fff">
</g>
<g id="#527a8bff">
</g>
<g id="#567480ff">
</g>
<g id="#45585eff">
</g>
<g id="#fbf8f0ff">
<path fill="#fbf8f0" opacity="1.00" d=" M 234.32 380.77 C 239.14 380.36 243.98 380.54 248.81 380.40 C 249.43 385.84 249.33 391.31 249.04 396.77 C 248.25 396.86 246.69 397.06 245.90 397.16 C 241.88 397.43 237.86 397.40 233.84 397.16 C 232.97 391.75 233.14 386.27 233.46 380.84 C 233.68 380.82 234.11 380.78 234.32 380.77 Z" />
</g>
<g id="#fbf9ecff">
<path fill="#fbf9ec" opacity="1.00" d=" M 187.21 381.38 C 192.51 380.24 197.94 381.05 203.31 380.84 C 204.81 386.11 202.95 391.46 203.36 396.80 C 203.54 401.83 203.14 406.87 203.78 411.88 C 213.56 411.86 223.36 411.73 233.14 412.12 C 234.87 413.51 235.95 415.41 236.64 417.49 C 237.07 417.77 237.92 418.32 238.35 418.60 C 239.42 420.56 240.25 422.66 241.18 424.70 C 231.53 426.40 221.71 425.52 211.97 425.84 C 205.16 426.15 198.27 425.15 191.56 426.63 C 190.98 426.58 189.82 426.48 189.25 426.43 C 188.84 426.13 188.03 425.54 187.62 425.24 C 186.27 414.67 187.18 403.93 187.02 393.29 C 187.04 390.12 187.12 386.95 187.20 383.79 C 187.20 383.19 187.20 381.98 187.21 381.38 Z" />
</g>
<g id="#bdeeeaff">
<path fill="#bdeeea" opacity="1.00" d=" M 203.31 380.84 C 207.84 380.84 212.37 380.88 216.90 380.85 C 217.74 386.11 217.57 391.46 217.67 396.77 C 212.91 397.10 208.13 396.90 203.36 396.80 C 202.95 391.46 204.81 386.11 203.31 380.84 Z" />
</g>
<g id="#d4e6e1ff">
<path fill="#d4e6e1" opacity="1.00" d=" M 324.39 380.59 C 326.11 380.71 327.83 380.90 329.55 381.14 C 332.57 381.62 335.64 381.71 338.70 381.74 C 338.94 381.74 339.43 381.75 339.67 381.75 C 339.74 382.30 339.87 383.39 339.94 383.94 C 340.18 386.97 340.48 390.00 340.58 393.05 C 340.54 394.55 340.47 396.06 340.33 397.57 C 335.33 397.26 330.30 397.38 325.33 396.66 C 325.24 400.85 325.26 405.05 325.34 409.24 C 323.29 399.74 326.88 390.02 324.39 380.59 Z" />
</g>
<g id="#6c8c97ff">
</g>
<g id="#416573ff">
</g>
<g id="#3f6575ff">
</g>
<g id="#467485ff">
</g>
<g id="#516969ff">
</g>
<g id="#394a5bff">
</g>
<g id="#e8ece2ff">
<path fill="#e8ece2" opacity="1.00" d=" M 364.32 397.26 C 366.81 397.05 369.31 396.92 371.82 396.94 C 371.80 397.66 371.78 399.08 371.76 399.80 C 371.59 403.75 372.77 407.65 372.46 411.59 C 371.35 415.12 366.85 413.35 364.14 413.76 C 362.18 413.75 360.23 413.76 358.27 413.77 C 357.86 417.96 357.62 422.16 357.48 426.37 C 356.93 422.59 356.52 418.75 357.05 414.95 C 357.90 409.45 357.16 403.85 358.28 398.39 C 360.28 398.00 362.30 397.63 364.32 397.26 Z" />
</g>
<g id="#708e98ff">
</g>
<g id="#4d7383ff">
</g>
<g id="#2e5060ff">
</g>
<g id="#8faeaeff">
</g>
<g id="#44687bff">
</g>
<g id="#5a7e8fff">
</g>
<g id="#7d9ea5ff">
</g>
<g id="#567c8bff">
</g>
<g id="#e9f5f0ff">
<path fill="#e9f5f0" opacity="1.00" d=" M 233.14 412.12 C 238.31 412.47 243.49 412.38 248.67 412.37 C 249.70 417.42 249.21 422.59 249.75 427.69 C 244.08 427.89 238.41 427.69 232.74 427.60 C 219.03 426.85 205.26 427.67 191.56 426.63 C 198.27 425.15 205.16 426.15 211.97 425.84 C 221.71 425.52 231.53 426.40 241.18 424.70 C 240.25 422.66 239.42 420.56 238.35 418.60 C 237.92 418.32 237.07 417.77 236.64 417.49 C 235.95 415.41 234.87 413.51 233.14 412.12 Z" />
</g>
<g id="#e3f0e5ff">
<path fill="#e3f0e5" opacity="1.00" d=" M 377.41 413.44 C 380.87 413.44 384.34 413.34 387.80 413.39 C 387.31 427.42 388.73 441.60 386.45 455.53 C 384.46 455.65 382.47 455.74 380.49 455.88 C 377.66 456.10 374.83 456.05 372.01 456.09 C 371.12 446.74 372.07 437.34 371.78 427.96 C 371.78 427.58 371.78 426.82 371.78 426.44 C 372.33 425.01 372.94 423.61 373.56 422.21 C 377.95 422.22 382.35 422.23 386.74 421.95 C 386.74 419.42 386.73 416.90 386.74 414.38 C 384.03 414.31 381.31 414.13 378.63 413.76 L 377.41 413.44 Z" />
</g>
<g id="#3d626fff">
</g>
<g id="#dbe2d3ff">
<path fill="#dbe2d3" opacity="1.00" d=" M 371.65 413.86 C 373.97 413.81 376.30 413.73 378.63 413.76 C 381.31 414.13 384.03 414.31 386.74 414.38 C 386.73 416.90 386.74 419.42 386.74 421.95 C 382.35 422.23 377.95 422.22 373.56 422.21 C 372.94 423.61 372.33 425.01 371.78 426.44 C 371.62 422.25 371.52 418.05 371.65 413.86 Z" />
</g>
<g id="#51727fff">
</g>
<g id="#aebecaff">
<path fill="#aebeca" opacity="1.00" d=" M 450.63 416.22 C 454.31 413.81 458.88 414.59 463.04 414.52 C 465.90 414.81 469.56 414.36 471.46 417.01 C 464.66 415.10 457.55 414.85 450.63 416.22 Z" />
</g>
<g id="#445a64ff">
</g>
<g id="#355057ff">
</g>
<g id="#2d4454ff">
</g>
<g id="#466671ff">
</g>
<g id="#496773ff">
</g>
<g id="#37535cff">
</g>
<g id="#4e7581ff">
</g>
<g id="#547989ff">
</g>
<g id="#3f5760ff">
</g>
<g id="#52727eff">
</g>
<g id="#405c69ff">
</g>
<g id="#284046ff">
</g>
<g id="#c0ece9ff">
<path fill="#c0ece9" opacity="1.00" d=" M 94.44 447.15 C 96.18 436.20 107.03 428.01 117.97 428.81 C 123.38 429.02 128.48 431.13 133.17 433.70 C 133.86 434.30 134.56 434.90 135.28 435.49 C 139.03 439.79 142.34 445.08 142.14 451.00 C 142.30 460.27 137.23 469.62 128.92 473.94 C 116.59 479.69 100.47 472.78 95.74 460.13 C 94.03 456.02 94.26 451.50 94.44 447.15 M 108.71 432.78 C 105.70 434.23 102.52 435.89 100.94 439.01 C 101.12 439.88 101.29 440.75 101.46 441.63 C 99.19 444.90 99.96 449.00 100.45 452.69 C 101.21 457.09 100.86 461.85 103.13 465.87 C 104.87 469.49 109.04 470.66 112.12 472.83 C 117.62 472.15 123.14 471.73 128.67 471.55 C 131.25 470.07 132.34 467.11 133.74 464.66 C 134.67 464.24 135.61 463.85 136.55 463.47 C 139.35 458.59 140.93 452.72 139.77 447.12 C 138.32 444.67 137.51 440.79 134.30 440.22 C 134.40 439.54 134.51 438.87 134.62 438.21 C 131.59 435.05 126.92 435.07 123.46 432.64 C 120.31 432.11 117.00 433.35 114.00 431.94 C 112.22 430.93 110.37 432.09 108.71 432.78 Z" />
</g>
<g id="#ccede9ff">
<path fill="#ccede9" opacity="1.00" d=" M 447.53 431.48 C 453.15 428.48 459.83 428.93 465.94 429.76 C 467.13 430.13 468.29 430.56 469.46 431.03 C 468.84 431.24 467.60 431.66 466.98 431.87 C 459.18 431.97 449.84 430.46 443.89 436.81 C 439.34 440.80 439.96 447.25 439.58 452.72 C 438.99 453.28 438.40 453.85 437.82 454.43 C 437.75 456.25 437.52 458.07 437.05 459.85 C 433.35 449.65 437.43 436.35 447.53 431.48 Z" />
</g>
<g id="#b1efdaff">
<path fill="#b1efda" opacity="1.00" d=" M 108.71 432.78 C 110.37 432.09 112.22 430.93 114.00 431.94 C 117.00 433.35 120.31 432.11 123.46 432.64 C 126.92 435.07 131.59 435.05 134.62 438.21 C 134.51 438.87 134.40 439.54 134.30 440.22 C 137.51 440.79 138.32 444.67 139.77 447.12 C 140.93 452.72 139.35 458.59 136.55 463.47 C 135.61 463.85 134.67 464.24 133.74 464.66 C 132.34 467.11 131.25 470.07 128.67 471.55 C 123.14 471.73 117.62 472.15 112.12 472.83 C 109.04 470.66 104.87 469.49 103.13 465.87 C 100.86 461.85 101.21 457.09 100.45 452.69 C 99.96 449.00 99.19 444.90 101.46 441.63 C 101.29 440.75 101.12 439.88 100.94 439.01 C 102.52 435.89 105.70 434.23 108.71 432.78 Z" />
</g>
<g id="#b7ece7ff">
<path fill="#b7ece7" opacity="1.00" d=" M 469.46 431.03 C 473.14 432.43 476.17 435.09 478.56 438.17 C 481.46 442.21 483.82 446.92 483.75 452.00 C 484.71 464.89 472.70 476.82 459.91 476.29 C 455.34 476.22 450.94 474.62 447.04 472.32 C 447.46 471.69 448.31 470.43 448.74 469.79 C 451.37 471.57 454.19 473.64 457.54 473.46 C 463.32 473.14 469.97 472.73 474.09 468.06 C 475.49 466.76 475.44 464.76 475.69 463.01 C 476.57 461.42 477.49 459.77 477.33 457.89 C 477.30 453.92 478.38 449.99 477.97 446.03 C 477.19 440.05 472.68 434.32 466.45 433.56 C 466.58 433.14 466.85 432.29 466.98 431.87 C 467.60 431.66 468.84 431.24 469.46 431.03 Z" />
</g>
<g id="#5e8897ff">
</g>
<g id="#b3ecd9ff">
<path fill="#b3ecd9" opacity="1.00" d=" M 443.89 436.81 C 449.84 430.46 459.18 431.97 466.98 431.87 C 466.85 432.29 466.58 433.14 466.45 433.56 C 472.68 434.32 477.19 440.05 477.97 446.03 C 478.38 449.99 477.30 453.92 477.33 457.89 C 477.49 459.77 476.57 461.42 475.69 463.01 C 475.44 464.76 475.49 466.76 474.09 468.06 C 469.97 472.73 463.32 473.14 457.54 473.46 C 454.19 473.64 451.37 471.57 448.74 469.79 C 448.31 470.43 447.46 471.69 447.04 472.32 C 443.02 469.91 440.07 466.18 437.61 462.26 C 437.43 461.45 437.25 460.64 437.05 459.85 C 437.52 458.07 437.75 456.25 437.82 454.43 C 438.40 453.85 438.99 453.28 439.58 452.72 C 439.96 447.25 439.34 440.80 443.89 436.81 Z" />
</g>
<g id="#5a737eff">
</g>
<g id="#37525fff">
</g>
<g id="#415b68ff">
</g>
<g id="#e6f1e8ff">
<path fill="#e6f1e8" opacity="1.00" d=" M 219.41 442.25 C 228.95 441.20 238.54 443.07 248.12 442.56 L 249.02 442.59 C 249.00 445.43 249.07 448.27 249.07 451.12 C 248.22 454.92 248.76 459.10 246.84 462.60 C 246.74 461.97 246.53 460.69 246.43 460.06 C 243.15 458.57 239.57 458.04 235.99 458.00 C 234.43 457.93 232.88 457.87 231.33 457.79 C 230.48 456.76 229.64 455.73 228.80 454.71 C 225.98 456.14 223.06 457.36 220.05 458.34 C 219.58 454.82 219.38 451.27 219.30 447.73 C 219.32 445.90 219.36 444.07 219.41 442.25 Z" />
</g>
<g id="#517a87ff">
</g>
<g id="#fcfcf3ff">
<path fill="#fcfcf3" opacity="1.00" d=" M 280.40 442.20 C 283.54 442.06 286.68 441.93 289.82 441.75 C 296.15 441.65 302.48 441.52 308.81 441.57 C 308.97 446.76 309.54 451.92 309.66 457.11 L 309.54 457.51 C 299.63 457.23 289.65 458.43 279.79 457.14 C 280.03 453.20 279.98 449.26 280.23 445.33 C 280.27 444.55 280.35 442.99 280.40 442.20 Z" />
</g>
<g id="#557275ff">
</g>
<g id="#416670ff">
</g>
<g id="#69949fff">
</g>
<g id="#5d7e8cff">
</g>
<g id="#b5c8c7ff">
<path fill="#b5c8c7" opacity="1.00" d=" M 219.30 447.73 C 219.38 451.27 219.58 454.82 220.05 458.34 C 220.90 462.54 221.82 466.74 222.07 471.03 C 226.01 471.81 230.02 472.25 234.04 472.40 C 233.11 481.34 234.02 490.34 233.43 499.30 C 232.60 490.71 233.53 482.09 233.08 473.49 C 232.61 473.45 231.67 473.37 231.20 473.33 C 222.03 472.30 212.83 473.10 203.64 472.69 C 209.13 472.02 214.67 472.60 220.18 472.17 C 220.44 467.08 219.73 462.02 218.53 457.08 C 218.99 453.98 219.17 450.85 219.30 447.73 Z" />
</g>
<g id="#486774ff">
</g>
<g id="#d1e1daff">
<path fill="#d1e1da" opacity="1.00" d=" M 246.84 462.60 C 248.76 459.10 248.22 454.92 249.07 451.12 C 248.66 458.15 249.33 465.17 249.48 472.19 C 244.33 472.30 239.18 472.25 234.04 472.40 C 234.92 468.43 234.93 464.35 234.42 460.33 C 234.94 459.55 235.46 458.77 235.99 458.00 C 239.57 458.04 243.15 458.57 246.43 460.06 C 246.53 460.69 246.74 461.97 246.84 462.60 Z" />
</g>
<g id="#485e69ff">
</g>
<g id="#4e727eff">
</g>
<g id="#e6eadeff">
<path fill="#e6eade" opacity="1.00" d=" M 220.05 458.34 C 223.06 457.36 225.98 456.14 228.80 454.71 C 229.64 455.73 230.48 456.76 231.33 457.79 C 232.88 457.87 234.43 457.93 235.99 458.00 C 235.46 458.77 234.94 459.55 234.42 460.33 C 234.93 464.35 234.92 468.43 234.04 472.40 C 230.02 472.25 226.01 471.81 222.07 471.03 C 221.82 466.74 220.90 462.54 220.05 458.34 Z" />
</g>
<g id="#eaf8edff">
<path fill="#eaf8ed" opacity="1.00" d=" M 264.82 456.21 L 266.06 456.34 C 270.35 456.50 274.65 456.44 278.94 456.81 C 279.14 458.26 279.33 459.72 279.51 461.19 C 279.67 464.91 279.60 468.65 279.29 472.36 C 274.78 472.66 269.70 473.71 265.58 471.38 C 264.01 466.64 264.91 461.46 264.68 456.54 L 264.82 456.21 Z" />
</g>
<g id="#425c6cff">
</g>
<g id="#385c6fff">
</g>
<g id="#577d8cff">
</g>
<g id="#537481ff">
</g>
<g id="#5e7a86ff">
</g>
<g id="#4c7282ff">
</g>
<g id="#fcfbf2ff">
<path fill="#fcfbf2" opacity="1.00" d=" M 234.04 472.40 C 239.18 472.25 244.33 472.30 249.48 472.19 C 249.54 474.24 249.65 476.29 249.75 478.34 C 250.27 486.63 250.00 495.01 249.37 503.26 C 245.40 505.67 239.61 504.44 235.21 503.04 C 234.66 502.46 234.10 501.88 233.56 501.31 C 233.53 500.81 233.46 499.80 233.43 499.30 C 234.02 490.34 233.11 481.34 234.04 472.40 Z" />
</g>
<g id="#254050ff">
</g>
<g id="#3e5261ff">
</g>
<g id="#30505aff">
</g>
<g id="#4e7687ff">
</g>
<g id="#547380ff">
</g>
<g id="#4a6876ff">
</g>
<g id="#fdfcf3ff">
<path fill="#fdfcf3" opacity="1.00" d=" M 265.32 488.37 C 269.67 488.45 274.02 488.51 278.37 488.53 C 279.06 488.66 279.76 488.81 280.46 488.99 C 280.62 494.20 280.87 499.42 280.72 504.65 C 275.74 504.89 270.76 504.47 265.78 504.65 C 264.39 499.34 265.42 493.78 265.32 488.37 Z" />
</g>
<g id="#3a596dff">
</g>
<g id="#44626cff">
</g>
<g id="#3c5667ff">
</g>
<g id="#486876ff">
</g>
<g id="#3a505bff">
</g>
<g id="#607d89ff">
</g>
<g id="#3a5258ff">
</g>
<g id="#3a505dff">
</g>
<g id="#486773ff">
</g>
<g id="#42636cff">
</g>
<g id="#8bbdc3ff">
</g>
<g id="#3e505aff">
</g>
<g id="#fdfcf5ff">
<path fill="#fdfcf5" opacity="1.00" d=" M 249.21 505.01 L 249.84 504.75 C 254.70 504.58 259.56 505.04 264.41 504.75 C 265.19 512.94 265.71 521.19 264.87 529.40 C 264.73 529.96 264.44 531.07 264.30 531.63 C 263.13 531.85 261.96 532.07 260.80 532.29 C 256.86 532.05 251.26 531.64 249.66 527.33 C 248.51 519.96 249.60 512.44 249.21 505.01 Z" />
</g>
<g id="#5a7f8eff">
</g>
<g id="#71929eff">
</g>
<g id="#9bb2b8ff">
<path fill="#9bb2b8" opacity="1.00" d=" M 107.81 508.18 C 114.61 508.79 121.45 508.55 128.26 508.29 C 121.54 509.74 114.50 509.88 107.81 508.18 Z" />
</g>
<g id="#5b7c85ff">
</g>
<g id="#3b5868ff">
</g>
<g id="#f5f6efff">
<path fill="#f5f6ef" opacity="1.00" d=" M 297.24 518.33 C 300.80 518.25 304.39 518.14 307.91 518.83 C 308.03 519.90 308.16 520.98 308.30 522.06 C 308.35 525.77 310.00 531.68 305.33 533.22 C 297.48 533.23 289.53 534.01 281.75 532.69 C 280.45 528.19 280.55 523.48 280.68 518.84 C 286.20 518.77 291.72 518.57 297.24 518.33 Z" />
</g>
<g id="#29464cff">
</g>
<g id="#4e6470ff">
</g>
<g id="#4c6172ff">
</g>
<g id="#678b9aff">
</g>
<g id="#365062ff">
</g>
<g id="#b3c8cfff">
<path fill="#b3c8cf" opacity="1.00" d=" M 235.64 560.15 C 251.39 562.00 266.99 565.94 282.96 565.44 C 296.34 565.77 309.74 565.22 322.97 563.12 C 326.06 562.48 329.21 562.28 332.35 562.13 C 302.01 568.43 270.48 567.32 240.13 561.63 C 238.62 561.16 237.13 560.63 235.64 560.15 Z" />
</g>
<g id="#405765ff">
</g>
</svg>
